<svg xmlns="http://www.w3.org/2000/svg" viewBox="0 0 620 450">
  <defs>
    <linearGradient id="silver" x1="0" y1="0" x2="1" y2="1">
      <stop offset="0" stop-color="#ffffff"/>
      <stop offset="0.28" stop-color="#a7adb4"/>
      <stop offset="0.58" stop-color="#f8fafc"/>
      <stop offset="1" stop-color="#68717a"/>
    </linearGradient>
    <linearGradient id="gold" x1="0" y1="0" x2="1" y2="1">
      <stop offset="0" stop-color="#f7d36b"/>
      <stop offset="0.45" stop-color="#d4af37"/>
      <stop offset="1" stop-color="#8b5d12"/>
    </linearGradient>
    <filter id="shadow" x="-20%" y="-20%" width="140%" height="140%">
      <feDropShadow dx="0" dy="10" stdDeviation="8" flood-color="#000" flood-opacity="0.65"/>
    </filter>
  </defs>
  <rect width="620" height="450" fill="#07111d"/>
  <g transform="translate(122 40)" filter="url(#shadow)">
    <path d="M0 26 H108 C166 26 210 66 210 122 C210 178 166 218 108 218 H0 V176 H102 C136 176 164 154 164 122 C164 90 136 68 102 68 H42 V148 H0 Z" fill="url(#silver)"/>
    <path d="M0 178 H108 C140 178 165 163 180 139 L210 160 C188 198 152 220 108 220 H0 Z" fill="url(#gold)" opacity="0.96"/>
    <path d="M190 162 C226 105 272 72 322 78 C370 84 397 121 388 164 C381 201 347 226 309 219 C282 214 263 197 246 178" fill="none" stroke="url(#gold)" stroke-width="42" stroke-linecap="round"/>
    <path d="M242 143 C272 95 307 73 342 83 C371 91 389 116 384 146 C379 179 348 199 315 193 C292 189 273 174 254 153" fill="none" stroke="url(#silver)" stroke-width="30" stroke-linecap="round"/>
    <path d="M202 166 C226 127 250 100 278 87" fill="none" stroke="#07111d" stroke-width="12" stroke-linecap="round" opacity="0.55"/>
  </g>
  <g filter="url(#shadow)">
    <text x="310" y="310" text-anchor="middle" font-family="Montserrat, Inter, Arial, sans-serif" font-size="58" font-weight="700" letter-spacing="18" fill="url(#silver)">DINGLIAN</text>
    <line x1="122" y1="338" x2="210" y2="338" stroke="#d4af37" stroke-width="3"/>
    <text x="310" y="344" text-anchor="middle" font-family="Montserrat, Inter, Arial, sans-serif" font-size="13" font-weight="700" letter-spacing="4" fill="#d4af37">GLOBAL MANUFACTURING NETWORK</text>
    <line x1="410" y1="338" x2="498" y2="338" stroke="#d4af37" stroke-width="3"/>
    <text x="310" y="400" text-anchor="middle" font-family="Noto Sans TC, Microsoft JhengHei, Arial, sans-serif" font-size="34" font-weight="500" letter-spacing="24" fill="#dfe4ea">鼎鏈科技</text>
  </g>
</svg>