<svg xmlns="http://www.w3.org/2000/svg" viewBox="0 0 900 260" role="img" aria-labelledby="title desc">
  <title id="title">Dinglian Technology Logo</title>
  <desc id="desc">A modern DINGLIAN Technology logo with a linked D mark and blue technology gradient.</desc>
  <defs>
    <linearGradient id="g1" x1="0" y1="0" x2="1" y2="1">
      <stop offset="0" stop-color="#64d8ff"/>
      <stop offset="0.45" stop-color="#2f7df6"/>
      <stop offset="1" stop-color="#0d1b2f"/>
    </linearGradient>
    <linearGradient id="g2" x1="0" y1="0" x2="1" y2="0">
      <stop offset="0" stop-color="#ffffff"/>
      <stop offset="1" stop-color="#b8eaff"/>
    </linearGradient>
    <filter id="shadow" x="-20%" y="-20%" width="140%" height="140%">
      <feDropShadow dx="0" dy="16" stdDeviation="18" flood-color="#2f7df6" flood-opacity="0.24"/>
    </filter>
  </defs>
  <rect width="900" height="260" rx="42" fill="#07111f"/>
  <g transform="translate(55 42)" filter="url(#shadow)">
    <rect x="0" y="0" width="176" height="176" rx="42" fill="url(#g1)"/>
    <path d="M49 45h44c47 0 78 28 78 72s-31 72-78 72H49V45Zm42 38v68h5c22 0 35-12 35-34s-13-34-35-34h-5Z" transform="translate(-3 -29)" fill="#fff" opacity="0.98"/>
    <path d="M55 128c21-30 46-45 75-45h8v32h-8c-23 0-41 12-55 37l-7 12H35l20-36Z" fill="#b8eaff" opacity="0.92"/>
    <circle cx="132" cy="91" r="10" fill="#fff"/>
    <circle cx="54" cy="151" r="8" fill="#64d8ff"/>
    <path d="M54 151 132 91" stroke="#fff" stroke-width="6" stroke-linecap="round" opacity="0.82"/>
  </g>
  <g transform="translate(270 72)">
    <text x="0" y="58" font-family="Inter, Arial, sans-serif" font-size="58" font-weight="800" letter-spacing="4" fill="url(#g2)">DINGLIAN</text>
    <text x="4" y="102" font-family="Inter, Arial, sans-serif" font-size="23" font-weight="600" letter-spacing="12" fill="#64d8ff">TECHNOLOGY</text>
    <rect x="4" y="128" width="460" height="2" fill="#2f7df6" opacity="0.7"/>
    <text x="4" y="162" font-family="Inter, Arial, sans-serif" font-size="18" font-weight="500" letter-spacing="1" fill="#cbd5e1">One-Stop Manufacturing Solutions</text>
  </g>
</svg>
