<svg xmlns="http://www.w3.org/2000/svg" viewBox="0 0 920 260" role="img" aria-labelledby="title desc">
<title id="title">DINGLIAN Logo</title>
<desc id="desc">DINGLIAN Global Manufacturing Network logo in deep navy, metallic gray, and premium gold.</desc>
<defs>
<linearGradient id="silver" x1="0" y1="0" x2="1" y2="1"><stop offset="0" stop-color="#f5f7fa"/><stop offset="0.32" stop-color="#a7adb4"/><stop offset="0.68" stop-color="#ffffff"/><stop offset="1" stop-color="#68717a"/></linearGradient>
<linearGradient id="gold" x1="0" y1="0" x2="1" y2="1"><stop offset="0" stop-color="#f6d06a"/><stop offset="0.45" stop-color="#d4af37"/><stop offset="1" stop-color="#9f6f18"/></linearGradient>
<filter id="shadow" x="-25%" y="-25%" width="150%" height="150%"><feDropShadow dx="0" dy="12" stdDeviation="10" flood-color="#000000" flood-opacity="0.45"/></filter>
</defs>
<rect width="920" height="260" rx="36" fill="#0d1b2a"/>
<g transform="translate(84 38)" filter="url(#shadow)">
<path d="M0 28 H92 C142 28 179 63 179 108 C179 154 142 188 92 188 H0 V154 H88 C118 154 141 135 141 108 C141 82 118 62 88 62 H34 V126 H0 Z" fill="url(#silver)"/>
<path d="M4 158 H96 C121 158 142 146 153 127 L178 144 C160 174 130 192 96 192 H4 Z" fill="url(#gold)" opacity="0.95"/>
<path d="M167 145 C197 101 236 74 278 78 C318 82 343 112 338 149 C333 187 299 212 263 202 C241 196 225 182 211 169 L236 145 C247 156 256 166 270 170 C286 174 303 162 306 145 C309 128 298 115 281 113 C254 110 229 131 202 171 C180 204 146 213 120 194 L143 168 C151 174 160 157 167 145 Z" fill="url(#gold)"/>
<path d="M205 128 C230 88 262 66 296 69 C327 72 349 94 350 124 C351 154 329 179 300 185 C275 190 253 181 233 160 L257 136 C270 150 283 158 296 155 C310 152 320 140 319 126 C318 113 309 104 294 103 C274 101 255 116 232 151 C211 183 184 199 155 195 L171 160 C184 161 196 143 205 128 Z" fill="none" stroke="url(#silver)" stroke-width="22" stroke-linecap="round"/>
</g>
<g transform="translate(84 184)">
<text x="0" y="0" font-family="Montserrat, Inter, Arial, sans-serif" font-size="54" font-weight="700" letter-spacing="17" fill="url(#silver)">DINGLIAN</text>
<line x1="0" y1="34" x2="96" y2="34" stroke="#d4af37" stroke-width="3"/>
<text x="118" y="42" font-family="Montserrat, Inter, Arial, sans-serif" font-size="15" font-weight="600" letter-spacing="6" fill="#d4af37">GLOBAL MANUFACTURING NETWORK</text>
<line x1="500" y1="34" x2="596" y2="34" stroke="#d4af37" stroke-width="3"/>
<text x="145" y="88" font-family="Noto Sans TC, Microsoft JhengHei, Arial, sans-serif" font-size="32" font-weight="500" letter-spacing="28" fill="#dfe4ea">鼎鏈科技</text>
</g>
</svg>